<svg width="56" height="50" viewBox="0 0 56 50" fill="none" xmlns="http://www.w3.org/2000/svg">
<path d="M41.3265 25.9185L30.3677 7.32303C30.1247 6.91077 29.7784 6.56905 29.3629 6.33164C28.9474 6.09424 28.4771 5.96936 27.9986 5.96936C27.5201 5.96936 27.0498 6.09424 26.6343 6.33164C26.2188 6.56905 25.8725 6.91077 25.6295 7.32303L20.0525 16.7913C20.608 22.2335 22.6457 24.4445 26.6167 24.4445C32.1305 24.4445 37.1107 24.9285 41.3292 25.9185H41.3265ZM45.6027 33.1703C41.3485 31.061 34.666 29.9445 26.614 29.9445C21.6117 29.9445 18.0615 27.6565 16.1282 23.4435L6.31073 40.103C6.06433 40.5208 5.93282 40.9963 5.92953 41.4814C5.92623 41.9664 6.05128 42.4437 6.29199 42.8648C6.53269 43.2858 6.88049 43.6358 7.3001 43.8791C7.71971 44.1224 8.1962 44.2503 8.68123 44.25H47.3187C47.8035 44.2499 48.2797 44.1215 48.6989 43.878C49.1181 43.6346 49.4655 43.2846 49.7059 42.8636C49.9463 42.4425 50.0711 41.9655 50.0677 41.4807C50.0643 40.9959 49.9328 40.5206 49.6865 40.103L45.6027 33.173V33.1703ZM35.106 4.52903L54.4247 37.309C55.1637 38.562 55.5582 39.9881 55.5683 41.4427C55.5784 42.8973 55.2038 44.3287 54.4823 45.5918C53.7609 46.8549 52.7183 47.9048 51.4602 48.6351C50.2021 49.3653 48.7734 49.75 47.3187 49.75H8.68123C7.22677 49.7502 5.79811 49.3658 4.54006 48.6359C3.28201 47.906 2.23929 46.8565 1.51758 45.5937C0.795878 44.3309 0.420838 42.8998 0.430479 41.4453C0.44012 39.9909 0.834098 38.5649 1.57248 37.3118L20.8912 4.53178C21.62 3.29436 22.6592 2.26861 23.9059 1.55596C25.1527 0.843305 26.5639 0.468445 28 0.468445C29.4361 0.468445 30.8473 0.843305 32.094 1.55596C33.3408 2.26861 34.38 3.29436 35.1087 4.53178L35.106 4.52903Z" fill="black"/>
</svg>
