<svg width="393" height="351" viewBox="0 0 393 351" fill="none" xmlns="http://www.w3.org/2000/svg">
<path d="M291.23 181.235L213.191 48.8129C211.46 45.8771 208.994 43.4437 206.035 41.7531C203.076 40.0625 199.728 39.1732 196.32 39.1732C192.912 39.1732 189.563 40.0625 186.604 41.7531C183.646 43.4437 181.179 45.8771 179.449 48.8129L139.734 116.238C143.69 154.994 158.201 170.739 186.479 170.739C225.744 170.739 261.209 174.185 291.25 181.235H291.23ZM321.682 232.877C291.387 217.856 243.8 209.905 186.46 209.905C150.837 209.905 125.555 193.612 111.788 163.61L41.8758 282.246C40.1212 285.221 39.1846 288.608 39.1612 292.062C39.1377 295.516 40.0282 298.914 41.7423 301.913C43.4565 304.912 45.9332 307.404 48.9213 309.136C51.9094 310.869 55.3026 311.78 58.7566 311.778H333.902C337.355 311.777 340.746 310.863 343.731 309.129C346.716 307.395 349.19 304.903 350.902 301.905C352.614 298.906 353.503 295.509 353.478 292.057C353.454 288.605 352.518 285.22 350.764 282.246L321.682 232.896V232.877ZM246.933 28.9163L384.506 262.35C389.768 271.272 392.578 281.428 392.65 291.786C392.722 302.145 390.054 312.338 384.916 321.333C379.778 330.328 372.354 337.805 363.395 343.005C354.436 348.205 344.261 350.944 333.902 350.945H58.7566C48.3991 350.946 38.2253 348.209 29.2665 343.011C20.3077 337.813 12.8822 330.339 7.7428 321.346C2.60337 312.354 -0.0673625 302.163 0.00129096 291.805C0.0699445 281.448 2.87554 271.293 8.13373 262.369L145.707 28.9359C150.896 20.1239 158.296 12.8193 167.175 7.7444C176.053 2.66946 186.103 0 196.33 0C206.556 0 216.606 2.66946 225.484 7.7444C234.363 12.8193 241.763 20.1239 246.952 28.9359L246.933 28.9163Z" fill="white"/>
</svg>
