<svg width="66" height="66" viewBox="0 0 66 66" fill="none" xmlns="http://www.w3.org/2000/svg">
<path d="M64.3601 55.5483C60.3949 52.0884 55.7285 46.4475 52.9235 42.6216C50.2939 39.038 48.1437 35.212 46.0296 31.3088C45.6223 30.5508 45.251 29.767 44.8592 28.9988C44.1476 27.622 43.3535 26.1164 42.1006 25.147C40.9043 24.2189 39.2234 24.3117 38.2024 25.4616C37.7435 25.9772 37.264 26.6166 36.506 26.5547C35.6501 26.4877 35.2479 25.6111 34.6085 25.147C33.8454 24.5953 32.8657 24.3736 31.9892 24.8016C31.6334 24.9769 31.3292 25.2244 31.0507 25.508C30.6176 25.9463 30.0143 26.3897 29.3646 26.3124C28.7253 26.2402 28.3282 25.6884 27.8126 25.3636C26.9721 24.8274 26.0028 24.75 25.1674 25.3378C24.626 25.7194 24.2187 26.2659 23.8835 26.828C23.0431 28.2305 22.2181 30.3549 21.357 31.7367C15.1488 41.7244 9.88947 48.8349 2.27885 55.1719C-2.04725 58.7761 1.68072 61.7719 4.10932 61.7719C10.2607 61.7719 13.2307 59.7094 15.9223 59.7094C18.6138 59.7094 19.0367 62.2256 23.8217 62.2256C28.6067 62.2256 31.3601 59.7145 34.5879 59.7145C37.8209 59.7145 40.3217 62.107 43.9465 62.107C47.5714 62.107 50.5053 59.7145 53.2587 59.7145C56.0121 59.7145 57.7653 61.7203 61.1787 61.7203C64.6076 61.7203 67.4693 58.2553 64.3601 55.5483Z" fill="#CA6728"/>
<path d="M46.195 43.6374C45.4009 43.4878 44.6017 43.3331 43.8231 43.1217C41.2656 42.4153 39.4352 42.7969 37.2025 43.9777C36.4703 44.3644 35.6144 44.6377 34.7688 44.6428C33.8252 44.648 32.7991 44.416 31.9174 44.0911C31.0924 43.792 30.3034 43.426 29.5403 43.0392C27.782 42.1575 25.9825 42.4978 24.152 42.967C23.0538 43.2506 21.9349 43.56 20.8005 43.6477C19.2433 43.7663 18.8463 42.8639 19.6455 41.5697C22.4144 37.0889 24.9667 33.2269 26.1063 30.293C26.3589 29.633 26.9931 28.875 27.8284 28.9833C28.3183 29.0452 29.5558 30.36 30.5303 30.556C31.4584 30.7416 32.4072 29.2256 32.9847 29.1225C33.5467 29.0246 34.5006 29.2721 34.8409 29.6124C35.3205 30.0971 35.9702 30.6127 36.7281 30.6436C37.6305 30.6849 38.342 29.6742 39.0433 29.2669C40.3014 28.5347 40.7655 29.3649 41.2502 30.3239C41.8792 31.5872 43.0755 34.2272 44.6791 36.7538C46.3549 39.3989 48.4431 41.9255 48.5463 42.5958C48.7731 44.0447 46.9633 43.7766 46.195 43.6374Z" fill="white"/>
</svg>
